<mxfile host="Electron" agent="Mozilla/5.0 (Macintosh; Intel Mac OS X 10_15_7) AppleWebKit/537.36 (KHTML, like Gecko) draw.io/26.1.1 Chrome/132.0.6834.210 Electron/34.3.3 Safari/537.36" version="26.1.1">
  <diagram name="Page-1" id="OAMn2x-Y-IaO2jiOneYP">
    <mxGraphModel dx="1114" dy="854" grid="1" gridSize="10" guides="1" tooltips="1" connect="1" arrows="1" fold="1" page="1" pageScale="1" pageWidth="827" pageHeight="1169" math="0" shadow="0">
      <root>
        <mxCell id="0" />
        <mxCell id="1" parent="0" />
        <mxCell id="AVMh6ZbLvjALBUQfD-ss-63" value="" style="rounded=1;whiteSpace=wrap;html=1;fillColor=#f5f5f5;fontColor=#333333;strokeColor=none;" vertex="1" parent="1">
          <mxGeometry x="60" y="370" width="610" height="260" as="geometry" />
        </mxCell>
        <mxCell id="AVMh6ZbLvjALBUQfD-ss-62" value="" style="rounded=1;whiteSpace=wrap;html=1;fillColor=#f5f5f5;fontColor=#333333;strokeColor=none;" vertex="1" parent="1">
          <mxGeometry x="60" y="30" width="250" height="320" as="geometry" />
        </mxCell>
        <mxCell id="AVMh6ZbLvjALBUQfD-ss-55" style="edgeStyle=orthogonalEdgeStyle;rounded=0;orthogonalLoop=1;jettySize=auto;html=1;entryX=0;entryY=0.5;entryDx=0;entryDy=0;endArrow=block;endFill=1;" edge="1" parent="1" source="AVMh6ZbLvjALBUQfD-ss-23" target="AVMh6ZbLvjALBUQfD-ss-30">
          <mxGeometry relative="1" as="geometry" />
        </mxCell>
        <mxCell id="AVMh6ZbLvjALBUQfD-ss-23" value="" style="rounded=0;whiteSpace=wrap;html=1;fillColor=#dae8fc;strokeColor=#6c8ebf;" vertex="1" parent="1">
          <mxGeometry x="100" y="475" width="150" height="65" as="geometry" />
        </mxCell>
        <mxCell id="AVMh6ZbLvjALBUQfD-ss-21" value="" style="rounded=0;whiteSpace=wrap;html=1;fillColor=#dae8fc;strokeColor=#6c8ebf;" vertex="1" parent="1">
          <mxGeometry x="110" y="175" width="150" height="65" as="geometry" />
        </mxCell>
        <mxCell id="AVMh6ZbLvjALBUQfD-ss-8" style="rounded=0;orthogonalLoop=1;jettySize=auto;html=1;entryX=0.5;entryY=1;entryDx=0;entryDy=0;endArrow=block;endFill=1;" edge="1" parent="1" source="AVMh6ZbLvjALBUQfD-ss-1" target="AVMh6ZbLvjALBUQfD-ss-4">
          <mxGeometry relative="1" as="geometry" />
        </mxCell>
        <mxCell id="AVMh6ZbLvjALBUQfD-ss-10" style="rounded=0;orthogonalLoop=1;jettySize=auto;html=1;entryX=0.5;entryY=1;entryDx=0;entryDy=0;exitX=0.5;exitY=0;exitDx=0;exitDy=0;endArrow=block;endFill=1;" edge="1" parent="1" source="AVMh6ZbLvjALBUQfD-ss-1" target="AVMh6ZbLvjALBUQfD-ss-5">
          <mxGeometry relative="1" as="geometry" />
        </mxCell>
        <mxCell id="AVMh6ZbLvjALBUQfD-ss-11" style="rounded=0;orthogonalLoop=1;jettySize=auto;html=1;entryX=0.5;entryY=1;entryDx=0;entryDy=0;exitX=0.5;exitY=0;exitDx=0;exitDy=0;endArrow=block;endFill=1;" edge="1" parent="1" source="AVMh6ZbLvjALBUQfD-ss-1" target="AVMh6ZbLvjALBUQfD-ss-6">
          <mxGeometry relative="1" as="geometry" />
        </mxCell>
        <mxCell id="AVMh6ZbLvjALBUQfD-ss-1" value="입력 1" style="ellipse;whiteSpace=wrap;html=1;aspect=fixed;fillColor=#fff2cc;strokeColor=#d6b656;" vertex="1" parent="1">
          <mxGeometry x="100" y="260" width="50" height="50" as="geometry" />
        </mxCell>
        <mxCell id="AVMh6ZbLvjALBUQfD-ss-12" style="rounded=0;orthogonalLoop=1;jettySize=auto;html=1;entryX=0.5;entryY=1;entryDx=0;entryDy=0;endArrow=block;endFill=1;" edge="1" parent="1" source="AVMh6ZbLvjALBUQfD-ss-2" target="AVMh6ZbLvjALBUQfD-ss-4">
          <mxGeometry relative="1" as="geometry" />
        </mxCell>
        <mxCell id="AVMh6ZbLvjALBUQfD-ss-13" style="rounded=0;orthogonalLoop=1;jettySize=auto;html=1;endArrow=block;endFill=1;" edge="1" parent="1" source="AVMh6ZbLvjALBUQfD-ss-2">
          <mxGeometry relative="1" as="geometry">
            <mxPoint x="185" y="220" as="targetPoint" />
          </mxGeometry>
        </mxCell>
        <mxCell id="AVMh6ZbLvjALBUQfD-ss-14" style="rounded=0;orthogonalLoop=1;jettySize=auto;html=1;entryX=0.5;entryY=1;entryDx=0;entryDy=0;endArrow=block;endFill=1;" edge="1" parent="1" source="AVMh6ZbLvjALBUQfD-ss-2" target="AVMh6ZbLvjALBUQfD-ss-6">
          <mxGeometry relative="1" as="geometry" />
        </mxCell>
        <mxCell id="AVMh6ZbLvjALBUQfD-ss-2" value="입력 2" style="ellipse;whiteSpace=wrap;html=1;aspect=fixed;fillColor=#fff2cc;strokeColor=#d6b656;" vertex="1" parent="1">
          <mxGeometry x="160" y="260" width="50" height="50" as="geometry" />
        </mxCell>
        <mxCell id="AVMh6ZbLvjALBUQfD-ss-15" style="rounded=0;orthogonalLoop=1;jettySize=auto;html=1;entryX=0.5;entryY=1;entryDx=0;entryDy=0;exitX=0.5;exitY=0;exitDx=0;exitDy=0;endArrow=block;endFill=1;" edge="1" parent="1" source="AVMh6ZbLvjALBUQfD-ss-3" target="AVMh6ZbLvjALBUQfD-ss-4">
          <mxGeometry relative="1" as="geometry" />
        </mxCell>
        <mxCell id="AVMh6ZbLvjALBUQfD-ss-16" style="rounded=0;orthogonalLoop=1;jettySize=auto;html=1;entryX=0.5;entryY=1;entryDx=0;entryDy=0;exitX=0.5;exitY=0;exitDx=0;exitDy=0;endArrow=block;endFill=1;" edge="1" parent="1" source="AVMh6ZbLvjALBUQfD-ss-3" target="AVMh6ZbLvjALBUQfD-ss-5">
          <mxGeometry relative="1" as="geometry" />
        </mxCell>
        <mxCell id="AVMh6ZbLvjALBUQfD-ss-17" style="rounded=0;orthogonalLoop=1;jettySize=auto;html=1;entryX=0.5;entryY=1;entryDx=0;entryDy=0;endArrow=block;endFill=1;" edge="1" parent="1" source="AVMh6ZbLvjALBUQfD-ss-3" target="AVMh6ZbLvjALBUQfD-ss-6">
          <mxGeometry relative="1" as="geometry" />
        </mxCell>
        <mxCell id="AVMh6ZbLvjALBUQfD-ss-3" value="입력 3" style="ellipse;whiteSpace=wrap;html=1;aspect=fixed;fillColor=#fff2cc;strokeColor=#d6b656;" vertex="1" parent="1">
          <mxGeometry x="220" y="260" width="50" height="50" as="geometry" />
        </mxCell>
        <mxCell id="AVMh6ZbLvjALBUQfD-ss-18" style="rounded=0;orthogonalLoop=1;jettySize=auto;html=1;entryX=0.5;entryY=1;entryDx=0;entryDy=0;endArrow=block;endFill=1;" edge="1" parent="1" source="AVMh6ZbLvjALBUQfD-ss-4" target="AVMh6ZbLvjALBUQfD-ss-7">
          <mxGeometry relative="1" as="geometry" />
        </mxCell>
        <mxCell id="AVMh6ZbLvjALBUQfD-ss-4" value="a" style="ellipse;whiteSpace=wrap;html=1;aspect=fixed;fillColor=#ffe6cc;strokeColor=#d79b00;" vertex="1" parent="1">
          <mxGeometry x="130" y="190" width="30" height="30" as="geometry" />
        </mxCell>
        <mxCell id="AVMh6ZbLvjALBUQfD-ss-19" style="rounded=0;orthogonalLoop=1;jettySize=auto;html=1;entryX=0.5;entryY=1;entryDx=0;entryDy=0;endArrow=block;endFill=1;" edge="1" parent="1" source="AVMh6ZbLvjALBUQfD-ss-5" target="AVMh6ZbLvjALBUQfD-ss-7">
          <mxGeometry relative="1" as="geometry" />
        </mxCell>
        <mxCell id="AVMh6ZbLvjALBUQfD-ss-5" value="b" style="ellipse;whiteSpace=wrap;html=1;aspect=fixed;fillColor=#ffe6cc;strokeColor=#d79b00;" vertex="1" parent="1">
          <mxGeometry x="170" y="190" width="30" height="30" as="geometry" />
        </mxCell>
        <mxCell id="AVMh6ZbLvjALBUQfD-ss-20" style="rounded=0;orthogonalLoop=1;jettySize=auto;html=1;entryX=0.5;entryY=1;entryDx=0;entryDy=0;endArrow=block;endFill=1;" edge="1" parent="1" source="AVMh6ZbLvjALBUQfD-ss-6" target="AVMh6ZbLvjALBUQfD-ss-7">
          <mxGeometry relative="1" as="geometry" />
        </mxCell>
        <mxCell id="AVMh6ZbLvjALBUQfD-ss-6" value="c" style="ellipse;whiteSpace=wrap;html=1;aspect=fixed;fillColor=#ffe6cc;strokeColor=#d79b00;" vertex="1" parent="1">
          <mxGeometry x="210" y="190" width="30" height="30" as="geometry" />
        </mxCell>
        <mxCell id="AVMh6ZbLvjALBUQfD-ss-7" value="출력" style="ellipse;whiteSpace=wrap;html=1;aspect=fixed;fillColor=#f8cecc;strokeColor=#b85450;" vertex="1" parent="1">
          <mxGeometry x="160" y="90" width="50" height="50" as="geometry" />
        </mxCell>
        <mxCell id="AVMh6ZbLvjALBUQfD-ss-27" style="rounded=0;orthogonalLoop=1;jettySize=auto;html=1;entryX=0.5;entryY=1;entryDx=0;entryDy=0;endArrow=block;endFill=1;" edge="1" parent="1" source="AVMh6ZbLvjALBUQfD-ss-22" target="AVMh6ZbLvjALBUQfD-ss-25">
          <mxGeometry relative="1" as="geometry" />
        </mxCell>
        <mxCell id="AVMh6ZbLvjALBUQfD-ss-28" style="rounded=0;orthogonalLoop=1;jettySize=auto;html=1;entryX=0.5;entryY=1;entryDx=0;entryDy=0;endArrow=block;endFill=1;" edge="1" parent="1" source="AVMh6ZbLvjALBUQfD-ss-22" target="AVMh6ZbLvjALBUQfD-ss-24">
          <mxGeometry relative="1" as="geometry" />
        </mxCell>
        <mxCell id="AVMh6ZbLvjALBUQfD-ss-29" style="rounded=0;orthogonalLoop=1;jettySize=auto;html=1;entryX=0.5;entryY=1;entryDx=0;entryDy=0;endArrow=block;endFill=1;" edge="1" parent="1" source="AVMh6ZbLvjALBUQfD-ss-22" target="AVMh6ZbLvjALBUQfD-ss-26">
          <mxGeometry relative="1" as="geometry" />
        </mxCell>
        <mxCell id="AVMh6ZbLvjALBUQfD-ss-22" value="입력 1" style="ellipse;whiteSpace=wrap;html=1;aspect=fixed;fillColor=#fff2cc;strokeColor=#d6b656;" vertex="1" parent="1">
          <mxGeometry x="150" y="555" width="50" height="50" as="geometry" />
        </mxCell>
        <mxCell id="AVMh6ZbLvjALBUQfD-ss-24" value="a" style="ellipse;whiteSpace=wrap;html=1;aspect=fixed;fillColor=#ffe6cc;strokeColor=#d79b00;" vertex="1" parent="1">
          <mxGeometry x="120" y="490" width="30" height="30" as="geometry" />
        </mxCell>
        <mxCell id="AVMh6ZbLvjALBUQfD-ss-25" value="b" style="ellipse;whiteSpace=wrap;html=1;aspect=fixed;fillColor=#ffe6cc;strokeColor=#d79b00;" vertex="1" parent="1">
          <mxGeometry x="160" y="490" width="30" height="30" as="geometry" />
        </mxCell>
        <mxCell id="AVMh6ZbLvjALBUQfD-ss-26" value="c" style="ellipse;whiteSpace=wrap;html=1;aspect=fixed;fillColor=#ffe6cc;strokeColor=#d79b00;" vertex="1" parent="1">
          <mxGeometry x="200" y="490" width="30" height="30" as="geometry" />
        </mxCell>
        <mxCell id="AVMh6ZbLvjALBUQfD-ss-56" style="edgeStyle=orthogonalEdgeStyle;rounded=0;orthogonalLoop=1;jettySize=auto;html=1;entryX=0;entryY=0.5;entryDx=0;entryDy=0;endArrow=block;endFill=1;" edge="1" parent="1" source="AVMh6ZbLvjALBUQfD-ss-30" target="AVMh6ZbLvjALBUQfD-ss-46">
          <mxGeometry relative="1" as="geometry" />
        </mxCell>
        <mxCell id="AVMh6ZbLvjALBUQfD-ss-30" value="" style="rounded=0;whiteSpace=wrap;html=1;fillColor=#dae8fc;strokeColor=#6c8ebf;" vertex="1" parent="1">
          <mxGeometry x="300" y="475" width="150" height="65" as="geometry" />
        </mxCell>
        <mxCell id="AVMh6ZbLvjALBUQfD-ss-31" style="rounded=0;orthogonalLoop=1;jettySize=auto;html=1;entryX=0.5;entryY=1;entryDx=0;entryDy=0;endArrow=block;endFill=1;" edge="1" parent="1" source="AVMh6ZbLvjALBUQfD-ss-34" target="AVMh6ZbLvjALBUQfD-ss-36">
          <mxGeometry relative="1" as="geometry" />
        </mxCell>
        <mxCell id="AVMh6ZbLvjALBUQfD-ss-32" style="rounded=0;orthogonalLoop=1;jettySize=auto;html=1;entryX=0.5;entryY=1;entryDx=0;entryDy=0;endArrow=block;endFill=1;" edge="1" parent="1" source="AVMh6ZbLvjALBUQfD-ss-34" target="AVMh6ZbLvjALBUQfD-ss-35">
          <mxGeometry relative="1" as="geometry" />
        </mxCell>
        <mxCell id="AVMh6ZbLvjALBUQfD-ss-33" style="rounded=0;orthogonalLoop=1;jettySize=auto;html=1;entryX=0.5;entryY=1;entryDx=0;entryDy=0;endArrow=block;endFill=1;" edge="1" parent="1" source="AVMh6ZbLvjALBUQfD-ss-34" target="AVMh6ZbLvjALBUQfD-ss-37">
          <mxGeometry relative="1" as="geometry" />
        </mxCell>
        <mxCell id="AVMh6ZbLvjALBUQfD-ss-34" value="입력 1" style="ellipse;whiteSpace=wrap;html=1;aspect=fixed;fillColor=#fff2cc;strokeColor=#d6b656;" vertex="1" parent="1">
          <mxGeometry x="350" y="555" width="50" height="50" as="geometry" />
        </mxCell>
        <mxCell id="AVMh6ZbLvjALBUQfD-ss-35" value="a" style="ellipse;whiteSpace=wrap;html=1;aspect=fixed;fillColor=#ffe6cc;strokeColor=#d79b00;" vertex="1" parent="1">
          <mxGeometry x="320" y="490" width="30" height="30" as="geometry" />
        </mxCell>
        <mxCell id="AVMh6ZbLvjALBUQfD-ss-36" value="b" style="ellipse;whiteSpace=wrap;html=1;aspect=fixed;fillColor=#ffe6cc;strokeColor=#d79b00;" vertex="1" parent="1">
          <mxGeometry x="360" y="490" width="30" height="30" as="geometry" />
        </mxCell>
        <mxCell id="AVMh6ZbLvjALBUQfD-ss-37" value="c" style="ellipse;whiteSpace=wrap;html=1;aspect=fixed;fillColor=#ffe6cc;strokeColor=#d79b00;" vertex="1" parent="1">
          <mxGeometry x="400" y="490" width="30" height="30" as="geometry" />
        </mxCell>
        <mxCell id="AVMh6ZbLvjALBUQfD-ss-46" value="" style="rounded=0;whiteSpace=wrap;html=1;fillColor=#dae8fc;strokeColor=#6c8ebf;" vertex="1" parent="1">
          <mxGeometry x="500" y="475" width="150" height="65" as="geometry" />
        </mxCell>
        <mxCell id="AVMh6ZbLvjALBUQfD-ss-47" style="rounded=0;orthogonalLoop=1;jettySize=auto;html=1;entryX=0.5;entryY=1;entryDx=0;entryDy=0;endArrow=block;endFill=1;" edge="1" parent="1" source="AVMh6ZbLvjALBUQfD-ss-50" target="AVMh6ZbLvjALBUQfD-ss-52">
          <mxGeometry relative="1" as="geometry" />
        </mxCell>
        <mxCell id="AVMh6ZbLvjALBUQfD-ss-48" style="rounded=0;orthogonalLoop=1;jettySize=auto;html=1;entryX=0.5;entryY=1;entryDx=0;entryDy=0;endArrow=block;endFill=1;" edge="1" parent="1" source="AVMh6ZbLvjALBUQfD-ss-50" target="AVMh6ZbLvjALBUQfD-ss-51">
          <mxGeometry relative="1" as="geometry" />
        </mxCell>
        <mxCell id="AVMh6ZbLvjALBUQfD-ss-49" style="rounded=0;orthogonalLoop=1;jettySize=auto;html=1;entryX=0.5;entryY=1;entryDx=0;entryDy=0;endArrow=block;endFill=1;" edge="1" parent="1" source="AVMh6ZbLvjALBUQfD-ss-50" target="AVMh6ZbLvjALBUQfD-ss-53">
          <mxGeometry relative="1" as="geometry" />
        </mxCell>
        <mxCell id="AVMh6ZbLvjALBUQfD-ss-50" value="입력 1" style="ellipse;whiteSpace=wrap;html=1;aspect=fixed;fillColor=#fff2cc;strokeColor=#d6b656;" vertex="1" parent="1">
          <mxGeometry x="550" y="555" width="50" height="50" as="geometry" />
        </mxCell>
        <mxCell id="AVMh6ZbLvjALBUQfD-ss-57" style="rounded=0;orthogonalLoop=1;jettySize=auto;html=1;entryX=0.5;entryY=1;entryDx=0;entryDy=0;endArrow=block;endFill=1;" edge="1" parent="1" source="AVMh6ZbLvjALBUQfD-ss-51" target="AVMh6ZbLvjALBUQfD-ss-54">
          <mxGeometry relative="1" as="geometry" />
        </mxCell>
        <mxCell id="AVMh6ZbLvjALBUQfD-ss-51" value="a" style="ellipse;whiteSpace=wrap;html=1;aspect=fixed;fillColor=#ffe6cc;strokeColor=#d79b00;" vertex="1" parent="1">
          <mxGeometry x="520" y="490" width="30" height="30" as="geometry" />
        </mxCell>
        <mxCell id="AVMh6ZbLvjALBUQfD-ss-58" style="rounded=0;orthogonalLoop=1;jettySize=auto;html=1;entryX=0.5;entryY=1;entryDx=0;entryDy=0;endArrow=block;endFill=1;" edge="1" parent="1" source="AVMh6ZbLvjALBUQfD-ss-52" target="AVMh6ZbLvjALBUQfD-ss-54">
          <mxGeometry relative="1" as="geometry" />
        </mxCell>
        <mxCell id="AVMh6ZbLvjALBUQfD-ss-52" value="b" style="ellipse;whiteSpace=wrap;html=1;aspect=fixed;fillColor=#ffe6cc;strokeColor=#d79b00;" vertex="1" parent="1">
          <mxGeometry x="560" y="490" width="30" height="30" as="geometry" />
        </mxCell>
        <mxCell id="AVMh6ZbLvjALBUQfD-ss-59" style="rounded=0;orthogonalLoop=1;jettySize=auto;html=1;entryX=0.5;entryY=1;entryDx=0;entryDy=0;endArrow=block;endFill=1;" edge="1" parent="1" source="AVMh6ZbLvjALBUQfD-ss-53" target="AVMh6ZbLvjALBUQfD-ss-54">
          <mxGeometry relative="1" as="geometry" />
        </mxCell>
        <mxCell id="AVMh6ZbLvjALBUQfD-ss-53" value="c" style="ellipse;whiteSpace=wrap;html=1;aspect=fixed;fillColor=#ffe6cc;strokeColor=#d79b00;" vertex="1" parent="1">
          <mxGeometry x="600" y="490" width="30" height="30" as="geometry" />
        </mxCell>
        <mxCell id="AVMh6ZbLvjALBUQfD-ss-54" value="출력" style="ellipse;whiteSpace=wrap;html=1;aspect=fixed;fillColor=#f8cecc;strokeColor=#b85450;" vertex="1" parent="1">
          <mxGeometry x="550" y="385" width="50" height="50" as="geometry" />
        </mxCell>
        <mxCell id="AVMh6ZbLvjALBUQfD-ss-60" value="일반 시퀀셜 모델" style="text;html=1;align=center;verticalAlign=middle;whiteSpace=wrap;rounded=0;fontStyle=1" vertex="1" parent="1">
          <mxGeometry x="135" y="40" width="100" height="30" as="geometry" />
        </mxCell>
        <mxCell id="AVMh6ZbLvjALBUQfD-ss-61" value="순환 신경망 모델" style="text;html=1;align=center;verticalAlign=middle;whiteSpace=wrap;rounded=0;fontStyle=1" vertex="1" parent="1">
          <mxGeometry x="130" y="395" width="100" height="30" as="geometry" />
        </mxCell>
      </root>
    </mxGraphModel>
  </diagram>
</mxfile>
